<?xml version="1.0" encoding="utf-8"?>
<!-- Generator: Adobe Illustrator 17.1.0, SVG Export Plug-In . SVG Version: 6.00 Build 0)  -->
<!DOCTYPE svg PUBLIC "-//W3C//DTD SVG 1.1 Tiny//EN" "http://www.w3.org/Graphics/SVG/1.1/DTD/svg11-tiny.dtd">
<svg version="1.1" baseProfile="tiny" id="Layer_1" xmlns="http://www.w3.org/2000/svg" xmlns:xlink="http://www.w3.org/1999/xlink"
	 x="0px" y="0px" viewBox="0 0 855 423" xml:space="preserve">
<path id="Beagle_Icon" fill-rule="evenodd" fill="#D5AF86" d="M269,255.7c-2.7-20.4-14.9-34.9-28.7-48.8
	c12-15.7,22.4-31.8,22.8-52.4c0.2-9-1.4-18.1-4.5-26.6c-12.6-25.7-38.2-40.3-74.2-43c-25.7-1.9-57.7,2.5-87.7,12
	c-0.2,0.1-0.7,0.2-0.9,0.2c-7.3,3-15.9,6.5-15.3,14.4l17.3,211.7c0.6,7.9,9.5,10.1,16.9,12.1c0.2,0.1,0.7,0.1,0.9,0.1
	c30.2,5.3,61.4,5.2,85.7-0.1c34.2-7.5,57.1-25.6,66.1-52.1C269.7,273.8,270.2,264.5,269,255.7z M254.5,279.1
	c-15.9,46.4-83.5,52.1-136.8,42.8c-3.3-0.9-4.4-1.6-6.6-1.9L94.4,112.9c2.3-0.7,3.3-1.5,6.5-2.8c53-16.7,122.8-20.6,144.8,23.2
	c2.5,6.7,3.8,14,3.7,21.1c-0.3,16.3-8.7,29.6-19.5,43.6c-6-5-12.7-9.8-19.6-14.7c-12.2-8.6-30.8-19.3-51.4-13.3
	c-19.8,5.8-27.3,26.7-25.9,44.9c1.2,16.1,11.8,37.3,32,40.3c21,3.1,37.8-10.6,48.6-20.8c6.2-5.8,12.1-11.5,17.5-17.3
	c12.3,12.4,22.2,24.4,24.4,40.5C256.5,264.7,256.1,272.1,254.5,279.1z M222,208.2c-5.1,5.6-10.9,11.2-17,16.8
	c-14.4,13.5-26.1,19-38.2,17.2c-13.2-1.9-20.1-16.8-21-28.3c-1-12.9,3.8-27.7,16.7-31.5c11.8-3.5,24.3,0.1,40.4,11.4
	C209.7,198.8,216.2,203.5,222,208.2z"/>
<g>
	<path fill="#35332F" d="M320.5,149.9h41.2c5.1,0,9.9,0.6,14.3,1.8c4.4,1.2,8.2,3,11.4,5.4c3.2,2.4,5.7,5.5,7.5,9.2
		c1.8,3.7,2.8,8.1,2.8,13.2c0,6.8-1.9,12.4-5.7,16.7c-3.8,4.3-8.7,7.5-14.8,9.5v0.3c3.6,0.2,6.9,1.1,10.1,2.8
		c3.1,1.6,5.8,3.7,8.1,6.4c2.3,2.6,4.1,5.7,5.4,9.1c1.3,3.5,2,7.2,2,11.2c0,5.4-1.1,10.1-3.3,14.2c-2.2,4.1-5.2,7.5-9,10.3
		c-3.8,2.8-8.2,4.9-13.2,6.4c-5,1.5-10.5,2.2-16.3,2.2h-40.7V149.9z M336.6,199.2h22c3,0,5.9-0.3,8.5-0.9c2.7-0.6,5-1.6,7-3.1
		c2-1.5,3.6-3.3,4.8-5.5c1.2-2.2,1.8-5,1.8-8.2c0-4.7-1.5-8.8-4.5-12.2c-3-3.5-7.8-5.2-14.2-5.2h-25.3V199.2z M336.6,254.5h23.6
		c2.5,0,5.2-0.3,8.1-0.8c3-0.5,5.7-1.5,8.3-3c2.6-1.5,4.7-3.5,6.5-6.1c1.8-2.6,2.7-6,2.7-10.2c0-7-2.3-12.3-6.9-15.8
		c-4.6-3.5-10.8-5.3-18.6-5.3h-23.8V254.5z"/>
</g>
<path fill="#35332F" d="M426.3,234.4c0,3.5,0.8,6.6,2.3,9.5c1.5,2.9,3.5,5.3,6,7.3c2.5,2,5.3,3.6,8.5,4.7c3.2,1.1,6.6,1.7,10.1,1.7
	c4.7,0,8.8-1.1,12.2-3.3c3.5-2.2,6.6-5.1,9.6-8.6l11.4,8.7c-8.4,10.8-20.1,16.3-35.2,16.3c-6.3,0-11.9-1.1-17-3.2
	c-5.1-2.1-9.4-5.1-12.9-8.8c-3.5-3.7-6.2-8.2-8.1-13.2c-1.9-5.1-2.9-10.6-2.9-16.5c0-5.9,1-11.4,3.1-16.5c2.1-5.1,4.9-9.5,8.5-13.2
	c3.6-3.7,8-6.7,13-8.8c5-2.1,10.5-3.2,16.4-3.2c7,0,13,1.2,17.9,3.7c4.9,2.5,8.9,5.7,12,9.6c3.1,4,5.4,8.4,6.8,13.4
	c1.4,5,2.1,10,2.1,15.2v5.4H426.3z M473.9,222.4c-0.1-3.4-0.6-6.4-1.6-9.2c-1-2.8-2.4-5.2-4.3-7.3c-1.9-2.1-4.3-3.7-7.1-4.9
	c-2.9-1.2-6.2-1.8-10-1.8c-3.7,0-7.1,0.7-10.1,2.1c-3.1,1.4-5.7,3.2-7.8,5.4c-2.1,2.2-3.8,4.7-4.9,7.5c-1.2,2.7-1.8,5.4-1.8,8.1
	H473.9z"/>
<path fill="#35332F" d="M498.6,198.9c4.2-3.9,9.2-6.8,14.8-8.8c5.6-2,11.2-2.9,16.8-2.9c5.8,0,10.8,0.7,15,2.2
	c4.2,1.5,7.6,3.4,10.3,5.9c2.7,2.5,4.7,5.3,6,8.5c1.3,3.2,1.9,6.5,1.9,10v40.6c0,2.8,0.1,5.4,0.2,7.7c0.1,2.3,0.3,4.6,0.5,6.7h-13.4
	c-0.3-4-0.5-8-0.5-12.1h-0.3c-3.4,5.1-7.3,8.8-11.9,10.9c-4.6,2.1-9.9,3.2-15.9,3.2c-3.7,0-7.2-0.5-10.6-1.5c-3.4-1-6.3-2.5-8.8-4.5
	c-2.5-2-4.5-4.5-6-7.5c-1.5-3-2.2-6.4-2.2-10.3c0-5.1,1.1-9.4,3.4-12.9c2.3-3.5,5.4-6.3,9.4-8.5c4-2.2,8.6-3.7,13.9-4.7
	c5.3-0.9,11-1.4,17-1.4h11.1V216c0-2-0.4-4-1.2-6c-0.8-2-2-3.8-3.5-5.4c-1.6-1.6-3.5-2.9-5.9-3.9c-2.3-0.9-5.1-1.4-8.4-1.4
	c-2.9,0-5.4,0.3-7.6,0.8c-2.2,0.6-4.2,1.3-6,2.1c-1.8,0.8-3.4,1.8-4.9,2.9c-1.5,1.1-2.9,2.2-4.2,3.2L498.6,198.9z M541.1,230.4
	c-3.6,0-7.2,0.2-11,0.6c-3.7,0.4-7.2,1.1-10.2,2.3c-3.1,1.1-5.6,2.7-7.5,4.7c-2,2-2.9,4.6-2.9,7.7c0,4.6,1.5,7.9,4.6,9.9
	c3.1,2,7.2,3,12.5,3c4.1,0,7.7-0.7,10.6-2.1c2.9-1.4,5.3-3.2,7-5.4c1.8-2.2,3.1-4.7,3.9-7.5c0.8-2.7,1.2-5.4,1.2-8.1v-5H541.1z"/>
<path fill="#35332F" d="M656.4,267.9c0,6-1,11.5-3.1,16.5c-2.1,5-5,9.3-8.8,12.9c-3.8,3.6-8.4,6.5-13.7,8.5c-5.4,2-11.3,3-17.8,3
	c-7.6,0-14.6-1.1-20.9-3.2c-6.3-2.1-12.3-5.8-18-11.1l10.2-12.7c3.9,4.2,8.2,7.5,12.7,9.6c4.6,2.2,9.8,3.3,15.6,3.3
	c5.6,0,10.2-0.8,13.9-2.4c3.7-1.6,6.6-3.7,8.8-6.3c2.2-2.6,3.7-5.5,4.6-8.8c0.9-3.3,1.3-6.6,1.3-10v-11.7h-0.5
	c-2.9,4.8-6.8,8.4-11.8,10.6c-5,2.3-10.2,3.4-15.7,3.4c-5.8,0-11.2-1-16.2-3.1c-5-2.1-9.2-4.9-12.8-8.5c-3.6-3.6-6.4-7.9-8.4-12.9
	c-2-5-3-10.4-3-16.2c0-5.8,0.9-11.3,2.8-16.3c1.9-5.1,4.6-9.5,8.1-13.3c3.5-3.8,7.8-6.8,12.7-8.9c5-2.1,10.5-3.2,16.7-3.2
	c5.4,0,10.6,1.2,15.7,3.5c5.1,2.3,9.1,5.6,12,9.9h0.3v-11.4h15.1V267.9z M615.2,201.2c-4,0-7.7,0.7-10.9,2.1c-3.2,1.4-6,3.3-8.2,5.7
	c-2.2,2.4-4,5.3-5.2,8.7c-1.2,3.4-1.8,7.1-1.8,11.1c0,8,2.3,14.5,7,19.4c4.7,4.9,11.1,7.3,19.1,7.3c8,0,14.4-2.4,19.1-7.3
	c4.7-4.9,7-11.3,7-19.4c0-4-0.6-7.7-1.8-11.1c-1.2-3.4-3-6.3-5.2-8.7c-2.2-2.4-5-4.3-8.2-5.7C622.8,201.9,619.2,201.2,615.2,201.2z"
	/>
<path fill="#35332F" d="M670,141.9h15.1v126.7H670V141.9z"/>
<g>
	<path fill="#35332F" d="M711.8,234.4c0,3.5,0.8,6.6,2.3,9.5c1.5,2.9,3.5,5.3,6,7.3c2.5,2,5.3,3.6,8.5,4.7c3.2,1.1,6.6,1.7,10.1,1.7
		c4.7,0,8.8-1.1,12.2-3.3c3.5-2.2,6.6-5.1,9.6-8.6l11.4,8.7c-8.4,10.8-20.1,16.3-35.2,16.3c-6.3,0-11.9-1.1-17-3.2
		c-5.1-2.1-9.4-5.1-12.9-8.8c-3.5-3.7-6.2-8.2-8.1-13.2c-1.9-5.1-2.8-10.6-2.8-16.5c0-5.9,1-11.4,3.1-16.5c2.1-5.1,4.9-9.5,8.5-13.2
		c3.6-3.7,8-6.7,13-8.8c5-2.1,10.5-3.2,16.4-3.2c7,0,13,1.2,17.9,3.7c4.9,2.5,8.9,5.7,12,9.6c3.1,4,5.4,8.4,6.8,13.4
		c1.4,5,2.1,10,2.1,15.2v5.4H711.8z M759.4,222.4c-0.1-3.4-0.6-6.4-1.6-9.2c-0.9-2.8-2.4-5.2-4.3-7.3c-1.9-2.1-4.3-3.7-7.1-4.9
		c-2.9-1.2-6.2-1.8-10-1.8c-3.7,0-7.1,0.7-10.1,2.1c-3.1,1.4-5.7,3.2-7.8,5.4c-2.1,2.2-3.8,4.7-4.9,7.5c-1.2,2.7-1.8,5.4-1.8,8.1
		H759.4z"/>
</g>
</svg>
