<?xml version="1.0" standalone="no"?>
<!DOCTYPE svg PUBLIC "-//W3C//DTD SVG 20010904//EN"
 "http://www.w3.org/TR/2001/REC-SVG-20010904/DTD/svg10.dtd">
<svg version="1.0" xmlns="http://www.w3.org/2000/svg"
 width="400.000000pt" height="400.000000pt" viewBox="0 0 400.000000 400.000000"
 preserveAspectRatio="xMidYMid meet">
<metadata>
Created by potrace 1.11, written by Peter Selinger 2001-2013
</metadata>
<g transform="translate(0.000000,400.000000) scale(0.100000,-0.100000)"
fill="#000000" stroke="none">
<path d="M1580 3591 c0 -6 -8 -14 -17 -18 -29 -10 -63 -45 -63 -64 0 -23 18
-34 52 -30 41 4 34 -16 -8 -24 -25 -4 -33 -10 -26 -17 7 -7 16 -6 30 1 11 6
31 11 44 11 32 1 73 34 65 53 -6 15 17 32 31 23 4 -2 8 10 9 27 2 28 -1 32
-25 34 -15 1 -42 5 -59 8 -22 5 -33 3 -33 -4z"/>
<path d="M2040 3537 c0 -35 30 -57 75 -55 56 2 72 21 38 43 -14 9 -32 18 -39
19 -7 1 -17 5 -20 9 -4 4 -18 7 -31 7 -17 0 -23 -6 -23 -23z"/>
<path d="M2065 2744 c-91 -12 -125 -22 -125 -36 0 -16 -138 -6 -198 14 -45 15
-75 18 -147 13 -49 -3 -135 -7 -190 -11 -190 -10 -255 -30 -325 -96 -19 -18
-48 -40 -65 -48 -26 -13 -30 -21 -33 -64 -2 -33 3 -62 18 -93 12 -25 35 -82
51 -128 32 -88 65 -134 118 -162 18 -10 33 -22 31 -27 -4 -19 28 -26 117 -26
142 0 239 16 313 53 36 18 70 41 75 52 6 11 25 42 43 69 17 27 39 71 48 98 17
51 71 118 96 118 28 0 77 -64 87 -114 6 -35 19 -59 47 -88 25 -26 34 -42 27
-45 -23 -8 -14 -30 25 -57 39 -27 65 -35 44 -14 -24 24 -11 29 21 9 47 -29
140 -41 313 -41 147 0 190 8 183 35 -2 6 17 30 42 56 37 37 49 59 68 125 35
125 38 128 45 49 4 -38 11 -93 17 -120 11 -49 8 -303 -4 -321 -3 -5 -8 -65
-11 -133 -7 -126 -19 -179 -32 -133 -6 22 -24 31 -24 11 0 -6 -9 -8 -21 -4
-15 5 -19 4 -15 -4 4 -6 2 -11 -3 -11 -6 0 -11 -9 -11 -20 0 -11 -5 -20 -11
-20 -7 0 -9 9 -4 23 17 57 22 87 15 87 -5 0 -12 -15 -16 -32 l-8 -33 -6 30 -7
30 -11 -27 c-6 -15 -9 -34 -6 -42 3 -8 2 -21 -2 -27 -5 -9 -10 -5 -16 10 -6
19 -11 21 -22 12 -11 -10 -19 -7 -35 10 -20 22 -21 22 -22 3 -1 -10 -1 -22 0
-26 0 -4 -6 -22 -13 -40 -7 -18 -11 -39 -9 -46 3 -8 -1 -10 -11 -6 -10 4 -16
18 -16 38 0 17 -4 37 -9 45 -6 10 -3 19 9 30 10 9 26 39 35 66 10 28 26 68 36
91 25 54 25 58 -16 77 -19 9 -35 21 -35 25 0 5 -18 14 -40 21 -22 6 -40 16
-40 21 0 6 -5 10 -11 10 -7 0 -34 14 -61 30 -26 17 -53 30 -59 30 -6 0 -28 14
-49 30 -21 17 -55 37 -75 46 l-37 15 18 -31 c10 -16 22 -30 26 -30 4 0 24 -22
44 -50 20 -27 43 -50 51 -50 9 0 13 -6 9 -15 -3 -8 -2 -15 2 -15 4 0 13 -10
21 -22 14 -23 14 -23 -8 -4 -26 23 -30 3 -5 -32 20 -28 11 -28 -17 1 l-22 22
6 -22 c3 -16 1 -20 -9 -16 -9 3 -12 13 -9 23 5 17 -28 60 -45 60 -4 0 -7 14
-8 30 -1 58 -8 65 -64 66 -43 1 -54 5 -71 28 -22 30 -46 28 -84 -6 -12 -11
-28 -18 -36 -15 -8 3 -34 1 -58 -4 -29 -7 -51 -6 -69 1 -21 9 -35 7 -75 -12
-28 -13 -54 -23 -60 -24 -5 -1 -13 -2 -18 -3 -4 0 -1 -17 7 -36 8 -19 11 -37
6 -40 -6 -3 -5 -16 0 -31 14 -37 13 -39 -25 -57 -19 -9 -35 -24 -35 -32 0 -9
-4 -13 -10 -10 -5 3 -19 1 -30 -5 -20 -11 -26 -1 -20 39 1 9 -4 12 -14 8 -22
-9 -20 10 3 22 15 9 23 26 32 79 5 27 42 80 59 85 11 3 20 13 20 22 0 9 7 30
17 48 16 31 16 32 -3 18 -10 -8 -30 -25 -44 -38 -88 -80 -233 -193 -249 -193
-6 0 -11 -4 -11 -10 0 -5 -11 -10 -24 -10 -13 0 -27 -7 -30 -16 -4 -10 -13
-13 -25 -9 -12 3 -21 0 -25 -10 -3 -8 -12 -15 -20 -15 -7 0 -16 -10 -20 -22
-9 -35 -6 -46 6 -18 l10 25 9 -22 c10 -27 12 -27 40 -10 15 8 23 9 26 1 2 -6
24 -43 48 -83 41 -66 45 -78 46 -144 2 -73 -2 -103 -19 -134 -8 -14 -12 -9
-22 27 -7 25 -13 50 -14 57 -1 7 -5 16 -9 19 -4 4 -7 16 -7 26 0 19 -1 19 -30
1 -16 -9 -30 -21 -30 -25 0 -4 -8 -8 -18 -8 -22 0 -47 -42 -37 -62 3 -7 0 -5
-9 6 -11 13 -12 24 -6 36 10 18 4 30 -13 30 -5 0 -7 -17 -4 -40 6 -45 -3 -40
-42 24 l-24 38 -18 -23 c-23 -29 -21 -51 5 -55 25 -4 33 -18 47 -84 6 -30 15
-62 20 -70 5 -8 12 -22 15 -30 3 -8 10 -23 15 -32 5 -10 9 -24 9 -32 0 -7 11
-21 24 -30 13 -8 27 -30 31 -48 9 -41 44 -108 60 -114 6 -3 10 -17 7 -34 -3
-20 2 -34 17 -46 12 -11 21 -30 21 -47 0 -16 7 -43 16 -60 9 -18 20 -39 24
-47 4 -8 16 -17 27 -20 25 -6 80 -54 116 -101 17 -23 29 -52 31 -82 3 -26 4
-47 2 -47 -17 0 -115 59 -161 96 -68 55 -96 85 -126 132 -11 17 -25 32 -29 32
-9 0 -50 -85 -49 -98 1 -4 1 -23 0 -41 -1 -24 -4 -32 -11 -25 -7 7 -31 8 -68
2 -31 -4 -76 -5 -99 -2 -39 6 -45 3 -90 -39 -26 -24 -68 -55 -93 -67 -25 -13
-59 -33 -76 -46 -17 -13 -91 -47 -165 -75 -74 -28 -154 -61 -179 -74 -25 -12
-94 -43 -155 -68 -60 -26 -149 -67 -197 -92 l-88 -46 0 -65 0 -64 2000 0 2000
0 0 99 0 99 -87 35 c-396 157 -448 181 -531 244 -45 35 -86 63 -90 63 -4 0
-31 18 -61 40 -59 44 -103 54 -94 20 8 -31 -16 -24 -76 21 -56 43 -96 59 -143
59 -15 0 -48 12 -73 27 -39 24 -48 36 -66 90 -11 34 -26 67 -34 73 -15 13 -23
6 -89 -74 -28 -35 -41 -44 -47 -35 -8 13 6 49 24 60 5 4 10 18 10 33 0 14 3
26 7 26 5 0 6 9 3 20 -3 11 0 20 6 20 6 0 11 16 11 36 0 21 4 33 10 29 6 -4
10 14 10 47 1 85 18 182 35 194 8 6 15 18 15 26 0 8 3 18 8 22 4 4 8 27 8 50
1 24 9 55 19 69 9 14 19 44 21 67 2 22 10 51 19 63 8 13 12 26 9 30 -12 11 8
167 23 182 11 11 15 40 15 108 0 56 7 113 17 147 12 40 15 65 8 90 -16 64 -28
175 -23 203 3 16 -1 44 -9 64 -14 33 -14 38 1 55 16 17 16 19 1 36 -10 10 -17
23 -17 29 0 6 -7 16 -15 23 -10 8 -15 30 -15 61 0 44 -3 50 -31 64 -16 9 -49
34 -72 56 -56 56 -84 68 -177 80 -97 12 -355 8 -465 -7z m-568 -30 c-3 -3 -12
-4 -19 -1 -8 3 -5 6 6 6 11 1 17 -2 13 -5z m1130 -47 c44 -23 76 -79 68 -117
-4 -16 -11 -33 -17 -36 -5 -3 1 -12 14 -18 21 -11 23 -18 23 -86 -1 -62 -6
-84 -29 -126 -34 -63 -65 -82 -147 -89 -35 -3 -99 -10 -142 -16 -99 -14 -158
-8 -203 22 -42 29 -120 139 -104 149 6 4 39 1 73 -7 34 -7 82 -16 107 -19 24
-3 47 -6 50 -7 19 -4 73 18 85 36 11 16 25 22 56 22 l42 0 -33 13 c-28 11 -38
11 -69 -1 -45 -18 -94 -22 -144 -12 -63 12 -59 34 8 37 19 1 35 4 35 8 0 3 33
12 73 19 62 11 86 10 170 -4 54 -10 101 -14 105 -11 3 4 1 15 -6 26 -7 12 -8
21 -2 25 13 8 7 50 -15 103 -13 32 -22 42 -34 37 -8 -3 -12 -3 -9 1 4 3 -8 20
-27 37 -19 17 -35 34 -35 37 0 11 71 -5 107 -23z m-1409 -49 c-6 -18 -22 -55
-34 -83 -13 -27 -20 -52 -15 -55 4 -3 10 -13 14 -23 10 -28 33 -30 59 -5 37
34 63 88 36 72 -7 -4 1 7 18 24 46 46 76 55 145 41 35 -7 59 -17 59 -24 0 -14
-18 -20 -93 -30 -26 -4 -50 -11 -53 -16 -3 -5 -16 -9 -29 -9 -16 0 -26 -7 -31
-22 -4 -13 -18 -38 -32 -56 -28 -37 -23 -51 12 -33 20 11 46 11 145 0 67 -7
121 -16 121 -21 0 -18 -77 -39 -135 -38 -81 3 -84 2 -54 -14 61 -32 119 -38
189 -21 67 16 170 71 170 91 0 8 7 14 15 14 23 0 18 -21 -25 -108 -47 -94 -90
-135 -162 -157 -60 -17 -179 -20 -264 -4 -107 19 -159 71 -190 188 -14 57 -14
64 0 80 18 20 21 68 5 73 -15 5 -4 54 21 95 10 18 36 41 57 52 55 29 63 27 51
-11z m842 -7 c0 -10 -30 -24 -37 -17 -3 3 -2 9 2 15 8 13 35 15 35 2z m338
-19 c4 -13 -78 -27 -113 -18 -38 10 -30 22 23 32 49 10 83 5 90 -14z m-753 -2
c3 -5 -3 -10 -14 -10 -11 0 -23 5 -26 10 -3 6 3 10 14 10 11 0 23 -4 26 -10z
m-160 -75 c-36 -13 -115 -33 -115 -29 0 10 66 33 95 33 17 0 26 -2 20 -4z
m619 -811 c12 -32 6 -63 -14 -69 -12 -4 -27 -2 -33 4 -9 7 -16 5 -25 -10 -14
-22 -71 -26 -90 -7 -9 9 -12 8 -12 -5 0 -12 -9 -17 -32 -19 -18 -1 -42 -2 -53
-3 -11 0 -30 -4 -43 -9 -17 -5 -29 -3 -42 9 -17 16 -19 15 -31 -6 l-12 -23
-19 24 c-20 25 -21 81 -2 87 7 2 19 -4 28 -13 16 -16 18 -15 23 5 6 25 35 28
53 6 11 -14 14 -13 24 7 16 32 69 37 89 8 l15 -22 11 21 c15 27 75 29 89 4 9
-14 11 -14 21 5 14 26 46 29 55 6z m76 -9 c9 -23 4 -55 -8 -55 -13 0 -42 34
-42 50 0 38 36 41 50 5z m221 -35 c6 0 7 5 4 10 -3 6 -2 10 4 10 16 0 24 -22
11 -30 -9 -6 -10 -19 -5 -46 10 -46 7 -66 -8 -76 -9 -6 -9 -8 1 -8 6 0 12 -9
12 -20 0 -11 -4 -20 -10 -20 -5 0 -10 -13 -10 -29 0 -17 -4 -33 -10 -36 -5 -3
-10 -18 -10 -33 0 -21 2 -24 10 -12 7 10 10 11 10 2 0 -7 -12 -17 -27 -23 -22
-8 -24 -12 -13 -19 8 -5 11 -12 7 -16 -4 -4 -1 -14 6 -22 10 -13 9 -14 -2 -7
-11 6 -13 4 -8 -8 4 -11 1 -17 -8 -17 -8 0 -15 -5 -15 -11 0 -5 -5 -7 -12 -3
-8 5 -9 2 -5 -10 5 -14 3 -15 -13 -6 -26 14 -30 13 -30 -9 0 -23 -28 -35 -46
-20 -8 6 -14 20 -14 31 0 18 -2 17 -30 -4 -16 -12 -30 -30 -30 -40 0 -24 -8
-23 -31 5 -10 12 -18 17 -19 11 0 -6 -8 -20 -18 -32 -23 -26 -47 -14 -37 19 3
13 3 20 -2 14 -4 -5 -13 -11 -19 -12 -12 -2 -7 45 8 63 4 6 6 20 2 30 -4 15 0
13 18 -7 27 -29 55 -28 60 4 2 13 15 27 35 36 17 8 37 24 43 37 7 13 18 22 24
21 6 -1 10 9 8 23 -2 16 5 30 20 41 19 15 20 19 9 33 -11 13 -11 16 0 16 12 0
12 2 0 9 -7 5 -11 14 -7 20 4 6 3 19 -3 29 -12 22 -5 32 40 60 19 12 48 33 64
48 17 16 31 22 33 15 2 -6 8 -11 13 -11z m363 -16 c3 -8 2 -12 -4 -9 -6 3 -10
10 -10 16 0 14 7 11 14 -7z m-1189 -75 c-7 -11 33 -32 45 -24 6 3 10 1 10 -6
0 -8 4 -8 15 1 13 11 14 10 9 -4 -4 -11 -2 -16 7 -14 9 2 13 -5 11 -19 -2 -17
2 -23 16 -23 15 0 18 -5 14 -25 -2 -15 0 -25 7 -25 6 0 11 -13 11 -29 0 -15 9
-40 20 -54 11 -14 20 -29 20 -34 0 -14 46 -37 58 -29 19 11 41 -6 52 -40 6
-18 8 -39 4 -45 -5 -8 -3 -9 5 -4 8 4 10 17 6 34 l-6 26 18 -25 c12 -16 26
-24 39 -22 15 2 23 -4 27 -20 8 -29 0 -36 -17 -13 -13 18 -36 13 -36 -8 0 -7
4 -6 10 3 8 13 10 12 10 -4 0 -14 -4 -16 -17 -10 -10 4 -28 8 -40 8 -13 1 -23
6 -23 13 0 21 -40 1 -46 -23 l-6 -24 -21 28 c-36 48 -39 49 -33 7 3 -22 3 -34
0 -27 -8 17 -22 15 -27 -5 -3 -12 -5 -10 -6 7 -2 30 -20 65 -21 40 -1 -12 -3
-12 -14 2 -7 10 -16 15 -19 11 -4 -3 -7 1 -7 10 0 9 -6 17 -12 17 -9 0 -8 4 2
10 12 7 8 10 -15 11 -16 0 -24 3 -17 6 6 2 10 9 6 14 -3 5 -13 5 -25 -1 -26
-15 -25 5 2 24 l21 14 -23 4 c-21 3 -22 4 -6 20 23 22 21 31 -3 24 -11 -3 -29
-8 -39 -11 -16 -5 -18 -2 -14 15 3 12 0 20 -7 20 -9 0 -11 10 -6 30 3 18 1 30
-5 30 -6 0 -7 5 -4 10 3 6 -1 17 -9 26 -9 8 -16 28 -16 44 0 16 -3 37 -7 47
-6 16 -5 16 10 4 15 -12 17 -11 17 3 0 10 4 15 8 12 4 -2 14 -1 21 3 16 10 53
2 46 -10z m473 -29 l19 -40 -23 2 c-13 1 -26 9 -29 16 -4 11 -10 8 -25 -9 -14
-17 -18 -19 -14 -6 8 23 -12 22 -33 -2 -14 -18 -19 -18 -37 -6 -12 9 -24 11
-31 5 -6 -5 -40 -8 -75 -7 -58 2 -65 4 -68 24 -3 17 1 20 17 16 12 -3 33 3 48
12 19 13 28 15 31 6 3 -8 8 -9 17 -1 7 6 39 14 71 19 108 16 110 15 132 -29z
m42 -5 c0 -12 -19 -12 -23 0 -4 9 -1 12 9 8 7 -3 14 -7 14 -8z m-380 -17 c0
-18 -2 -20 -9 -8 -6 8 -7 18 -5 22 9 14 14 9 14 -14z m261 -115 c-12 -20 -14
-14 -5 12 4 9 9 14 11 11 3 -2 0 -13 -6 -23z m-487 -80 c-9 -37 -17 -45 -37
-37 -24 9 -22 44 3 44 11 0 20 5 20 10 0 6 5 10 10 10 6 0 8 -11 4 -27z m521
-110 c-8 -34 -11 -37 -24 -28 -15 9 -14 42 2 48 25 11 29 6 22 -20z m575 -483
c0 -9 -32 -30 -46 -30 -4 0 1 9 11 20 19 21 35 26 35 10z m-50 -314 c0 -8 -5
-18 -11 -22 -14 -8 -33 11 -25 25 10 16 36 13 36 -3z m-1072 -44 c2 -14 -2
-22 -11 -22 -19 0 -40 26 -32 40 11 18 40 6 43 -18z m-318 -18 c0 -23 -20 -55
-31 -49 -13 9 -11 39 3 53 17 17 28 15 28 -4z m905 -9 c49 -49 16 -125 -55
-125 -44 0 -80 35 -80 77 0 34 42 73 80 73 19 0 40 -9 55 -25z m716 -61 c10
-13 10 -17 -2 -25 -8 -5 -20 -9 -27 -9 -19 0 -27 31 -11 41 19 12 25 11 40 -7z
m-1636 -25 c7 -11 -22 -49 -37 -49 -12 0 -10 34 4 48 15 15 25 15 33 1z"/>
<path d="M1185 2410 c-3 -5 3 -10 14 -10 12 0 21 5 21 10 0 6 -6 10 -14 10 -8
0 -18 -4 -21 -10z"/>
<path d="M2340 1570 c0 -5 5 -10 11 -10 5 0 7 5 4 10 -3 6 -8 10 -11 10 -2 0
-4 -4 -4 -10z"/>
<path d="M1970 290 c20 -13 53 -13 45 0 -3 6 -18 10 -33 10 -21 0 -24 -2 -12
-10z"/>
<path d="M2893 2398 c-21 -27 -21 -65 2 -133 l24 -70 -6 105 c-3 58 -7 106 -8
108 -1 1 -7 -3 -12 -10z"/>
<path d="M930 2313 c0 -10 3 -28 6 -40 5 -19 10 -21 25 -12 17 9 19 6 19 -31
0 -68 18 -44 22 29 3 60 1 68 -13 61 -8 -5 -22 -5 -30 1 -21 13 -29 11 -29 -8z"/>
<path d="M999 2095 c-3 -11 1 -105 8 -210 12 -165 17 -194 36 -222 12 -17 22
-31 23 -30 4 7 -29 276 -36 292 -5 11 -12 58 -17 105 -4 47 -11 76 -14 65z"/>
<path d="M1156 1552 c-3 -6 -1 -14 5 -17 15 -10 25 3 12 16 -7 7 -13 7 -17 1z"/>
</g>
</svg>
