<?xml version="1.0" encoding="UTF-8" standalone="no"?>
<svg width="90px" height="25px" viewBox="0 0 90 25" version="1.1" xmlns="http://www.w3.org/2000/svg" xmlns:xlink="http://www.w3.org/1999/xlink">
    <!-- Generator: Sketch 3.6.1 (26313) - http://www.bohemiancoding.com/sketch -->
    <title>icon_logo</title>
    <desc>Created with Sketch.</desc>
    <defs></defs>
    <g id="Page-1" stroke="none" stroke-width="1" fill="none" fill-rule="evenodd">
        <g id="icon_logo" fill="rgb(94, 212, 201)">
            <g id="01_logo_TM">
                <path d="M13.6327566,11.3537243 C13.1991202,7.98466276 10.3146334,5.37228739 6.82957478,5.37228739 C6.36505865,5.37228739 5.90014663,5.4191349 5.4476393,5.51177419 C4.97784457,5.60784457 4.51768328,5.75406158 4.07956012,5.94593842 C3.56225806,6.17239003 3.32643695,6.77573314 3.55315249,7.29303519 C3.77986804,7.81060117 4.38307918,8.04629032 4.90024927,7.81944282 C5.20693548,7.68510264 5.52906158,7.58296188 5.85765396,7.51552786 C6.17529326,7.45060117 6.50230205,7.41774194 6.82957478,7.41774194 C9.48510264,7.41774194 11.6456305,9.57826979 11.6456305,12.2337977 C11.6456305,14.8030205 9.62326979,16.908651 7.08677419,17.0428592 C7.0061437,17.0466862 6.9251173,17.0493255 6.84290323,17.0493255 C3.99351906,17.0493255 2.08464809,15.1131378 2.08464809,11.8928006 L2.08478006,6.43526393 C2.08478006,4.84152493 2.08478006,3.24778592 2.08016129,1.65404692 C2.08016129,1.44092375 2.08939883,1.22318182 2.05693548,1.01005865 C1.92259531,0.199398827 1.03315249,-0.138826979 0.375175953,0.356832845 C0.0370821114,0.611656891 0,0.954501466 0,1.33442815 L0.02771261,12.3999413 C0.02771261,17.4329472 4.77646628,20.0329179 8.82105572,18.8283431 C12.0317595,17.8693548 14.0608504,14.7514223 13.6393548,11.3508211 L13.6327566,11.3537243" id="Fill-1"></path>
                <path d="M64.5512463,7.9792522 C64.4547801,7.83013196 64.3489443,7.68760997 64.2387537,7.54865103 C64.1089003,7.37828446 63.9702053,7.2138563 63.821085,7.05840176 C62.7608798,5.95359238 61.3446334,5.3452346 59.8335044,5.3452346 C59.8309971,5.3452346 59.8286217,5.34536657 59.8261144,5.34536657 C59.823607,5.34536657 59.8212317,5.3452346 59.8187243,5.3452346 C58.3075953,5.3452346 56.891349,5.95359238 55.8311437,7.05840176 C55.6820235,7.2138563 55.5433284,7.37828446 55.4134751,7.54865103 C55.3034164,7.68760997 55.1974487,7.83013196 55.1009824,7.9792522 C55.0681232,8.02992669 55.0414663,8.08271261 55.0185044,8.13642229 C54.5169062,8.99564516 54.2416276,9.97601173 54.2416276,10.9586217 L54.2416276,18.0673021 C54.2416276,18.6414809 54.7071994,19.1070528 55.2813783,19.1070528 C55.8554252,19.1070528 56.3209971,18.6414809 56.3209971,18.0673021 L56.3209971,10.9586217 C56.3209971,10.1713196 56.6206891,9.35881232 57.1481525,8.71139296 C57.828827,7.9297654 58.8508944,7.42737537 59.8261144,7.42486804 C60.8013343,7.42737537 61.8234018,7.9297654 62.5040762,8.71139296 C63.0315396,9.35881232 63.3312317,10.1713196 63.3312317,10.9586217 L63.3312317,18.0673021 C63.3312317,18.6414809 63.7968035,19.1070528 64.3709824,19.1070528 C64.9451613,19.1070528 65.4106012,18.6414809 65.4106012,18.0673021 L65.4106012,10.9586217 C65.4106012,9.97601173 65.1354545,8.99564516 64.6337243,8.13642229 C64.6107625,8.08271261 64.5841056,8.02992669 64.5512463,7.9792522" id="Fill-3"></path>
                <path d="M51.6198827,7.02356305 C51.6102493,6.42259531 51.161305,5.97642229 50.6189296,5.97206745 C50.0846041,5.96797654 49.6508358,6.42101173 49.6158651,7.02673021 C49.6145455,7.05167155 49.6134897,7.06447214 49.6126979,7.07054252 C49.6123021,9.22750733 49.6192962,11.3844721 49.608871,13.541437 C49.6016129,15.0397654 48.7218035,16.3028006 47.3414516,16.841349 C45.9512023,17.3838563 44.493651,17.0346774 43.4498094,15.9228739 C42.7787683,15.2080205 42.5049413,14.3637097 42.5125953,13.3916569 C42.5293548,11.2379912 42.5203812,10.6953519 42.5168182,8.54155425 C42.5162903,8.30639296 42.5162903,8.06225806 42.4569062,7.83778592 C42.2709677,7.13441349 41.5443695,6.87378299 40.9309971,7.2543695 C40.5007918,7.52133431 40.443651,7.92686217 40.443783,8.37343109 C40.4447067,10.6779326 40.4642375,11.3715396 40.4341496,13.6756452 C40.4041935,15.963783 38.1856012,17.5791642 35.981393,16.9561584 C34.4330499,16.518563 33.3882845,15.1876979 33.3771994,13.5801026 C33.3612317,11.2542229 33.3542375,9.45567449 33.3816862,7.13005865 C33.3902639,6.39870968 32.7977419,5.95900293 32.3419355,5.96863636 C31.7702639,5.98064516 31.3647361,6.41309384 31.3628886,7.09284457 C31.3565543,9.48351906 31.331085,11.3468622 31.3768768,13.7366129 C31.4185777,15.9146921 32.5232551,17.4912757 34.4032258,18.5037097 C36.4666276,19.6148534 39.2797214,19.2275367 41.0652053,17.2545308 C41.4760117,16.8005718 41.4819501,16.8096774 41.9125513,17.2565103 C42.9867449,18.371217 44.2744575,18.9964663 45.8411437,19.0982111 C49.0723021,19.3084311 51.6877126,16.3654839 51.6214663,13.7318622 C51.6214663,12.7475367 51.6279326,11.4480792 51.6279326,10.3076393 C51.6279326,10.1354252 51.6280645,9.96307918 51.6279326,9.79073314 C51.6268768,8.69239003 51.637566,8.12164223 51.6198827,7.02356305" id="Fill-4"></path>
                <path id="Fill-5" d="M49.618847,7.35942665 C49.618847,7.28992665 49.618347,7.22042665 49.618347,7.15142665 C49.618347,6.59342665 49.600347,7.49192665 49.618847,7.35942665"></path>
                <path d="M89.2393548,6.05322581 C88.7096481,5.82782991 88.0974633,6.07420821 87.8719355,6.60391496 L80.9841642,22.6983431 C80.7586364,23.2280499 81.0051466,23.8403666 81.5348534,24.0658944 C81.6680059,24.1225073 81.806437,24.1495601 81.9426246,24.1495601 C82.3480205,24.1495601 82.7334897,23.9116276 82.9022727,23.5152053 L89.790044,7.42064516 C90.0155718,6.89107038 89.7690616,6.27875367 89.2393548,6.05322581" id="Fill-6"></path>
                <path d="M81.7052199,16.7275953 C82.233739,16.4991642 82.4769501,15.8856598 82.2485191,15.3571408 L78.4466129,6.59890029 C78.2183138,6.07038123 77.6046774,5.82717009 77.0761584,6.05546921 C76.5477713,6.28390029 76.3045601,6.89740469 76.5328592,7.42592375 L80.3347654,16.1841642 C80.504868,16.5779472 80.8888856,16.8133724 81.2921701,16.8133724 C81.4302053,16.8133724 81.5704839,16.7857918 81.7052199,16.7275953" id="Fill-7"></path>
                <path d="M22.3997067,17.0498534 C19.7440469,17.0498534 17.5835191,14.8893255 17.5835191,12.2337977 C17.5835191,9.57826979 19.7440469,7.41774194 22.3997067,7.41774194 C25.0552346,7.41774194 27.2157625,9.57826979 27.2157625,12.2337977 C27.2157625,14.8893255 25.0552346,17.0498534 22.3997067,17.0498534 L22.3997067,17.0498534 Z M22.3997067,5.37228739 C18.6161437,5.37228739 15.5380645,8.45036657 15.5380645,12.2337977 C15.5380645,16.0172287 18.6161437,19.0953079 22.3997067,19.0953079 C26.1831378,19.0953079 29.261217,16.0172287 29.261217,12.2337977 C29.261217,8.45036657 26.1831378,5.37228739 22.3997067,5.37228739 L22.3997067,5.37228739 Z" id="Fill-8"></path>
                <path d="M75.502478,17.0792815 C70.582434,17.0792815 70.0512757,12.7324927 70.0512757,10.863607 L70.0512757,8.05460411 L73.8105572,8.05460411 C74.3863196,8.05460411 74.8530792,7.58784457 74.8530792,7.01221408 C74.8530792,6.43658358 74.3863196,5.96969208 73.8105572,5.96969208 L70.0512757,5.96969208 L70.0512757,1.1111437 C70.0512757,0.546334311 69.5933578,0.0884164223 69.0285484,0.0884164223 C68.463607,0.0884164223 68.0058211,0.546334311 68.0058211,1.1111437 L68.0058211,10.863607 C68.0058211,12.9357185 68.5441056,14.8505279 69.5215689,16.2551613 C70.43239,17.5642522 72.2095601,19.1247361 75.502478,19.1247361 C76.0672874,19.1247361 76.5252053,18.6668182 76.5252053,18.1020088 C76.5252053,17.5371994 76.0672874,17.0792815 75.502478,17.0792815" id="Fill-9"></path>
            </g>
        </g>
    </g>
</svg>