<?xml version="1.0" encoding="utf-8"?>
<!-- Generator: Adobe Illustrator 17.1.0, SVG Export Plug-In . SVG Version: 6.00 Build 0)  -->
<!DOCTYPE svg PUBLIC "-//W3C//DTD SVG 1.1//EN" "http://www.w3.org/Graphics/SVG/1.1/DTD/svg11.dtd">
<svg version="1.1" id="Layer_1" xmlns="http://www.w3.org/2000/svg" xmlns:xlink="http://www.w3.org/1999/xlink" x="0px" y="0px"
	 width="200px" height="200px" viewBox="0 0 200 200" enable-background="new 0 0 200 200" xml:space="preserve">
<g id="Layer_2">
	<g>
		<ellipse fill="#ED1C29" cx="100" cy="100" rx="100" ry="100"/>
		<path fill="#FFFFFF" d="M76.9,95.4h46.1v8.8H76.9V95.4z M154,47.6h1.1v-5.5l-1.2,0.1c-1.3,0.1-30.7,4.9-30.7,18.3v28.1H77.1v-28
			c0-11.7,4.5-12.9,13.8-12.9H92v-5.4H45.1v5.4h1.1c9.4,0,13.8,1.3,13.8,12.9v78.6c0,11.6-4.5,12.9-13.8,12.9h-0.9v5.5l1.2-0.1
			c1.3-0.1,30.7-4.9,30.7-18.3V111h46.1v28.4c0,11.6-4.5,12.9-13.8,12.9h-0.9v5.4h46.6v-5.4H154c-9.4,0-13.8-1.3-13.8-12.9V60.7
			C140.2,48.9,144.7,47.6,154,47.6"/>
	</g>
</g>
<g id="Layer_3">
</g>
</svg>
