<?xml version="1.0" encoding="UTF-8" standalone="no"?>
<!-- Created with Inkscape (http://www.inkscape.org/) -->

<svg
   xmlns:dc="http://purl.org/dc/elements/1.1/"
   xmlns:cc="http://creativecommons.org/ns#"
   xmlns:rdf="http://www.w3.org/1999/02/22-rdf-syntax-ns#"
   xmlns:svg="http://www.w3.org/2000/svg"
   xmlns="http://www.w3.org/2000/svg"
   xmlns:sodipodi="http://sodipodi.sourceforge.net/DTD/sodipodi-0.dtd"
   xmlns:inkscape="http://www.inkscape.org/namespaces/inkscape"
   width="88.559334"
   height="20.35224"
   viewBox="0 0 23.431323 5.3848636"
   version="1.1"
   id="svg3969"
   inkscape:version="0.92.0 r15299"
   sodipodi:docname="radisson hotel group.svg">
  <defs
     id="defs3963" />
  <sodipodi:namedview
     id="base"
     pagecolor="#ffffff"
     bordercolor="#666666"
     borderopacity="1.0"
     inkscape:pageopacity="0.0"
     inkscape:pageshadow="2"
     inkscape:zoom="10.244667"
     inkscape:cx="43.778876"
     inkscape:cy="9.6774005"
     inkscape:document-units="mm"
     inkscape:current-layer="layer1"
     showgrid="false"
     fit-margin-top="0"
     fit-margin-left="0"
     fit-margin-right="0"
     fit-margin-bottom="0"
     units="px"
     inkscape:window-width="1280"
     inkscape:window-height="744"
     inkscape:window-x="-4"
     inkscape:window-y="-4"
     inkscape:window-maximized="1" />
  <metadata
     id="metadata3966">
    <rdf:RDF>
      <cc:Work
         rdf:about="">
        <dc:format>image/svg+xml</dc:format>
        <dc:type
           rdf:resource="http://purl.org/dc/dcmitype/StillImage" />
        <dc:title></dc:title>
      </cc:Work>
    </rdf:RDF>
  </metadata>
  <g
     inkscape:label="Layer 1"
     inkscape:groupmode="layer"
     id="layer1"
     transform="translate(-89.714459,-201.94943)">
    <g
       id="g4107"
       transform="translate(0.13229137,-0.13228851)">
      <path
         d="m 96.530476,206.99793 v -0.40569 h -0.39123 v 0.40569 h -0.21202 v -1.01036 h 0.21202 v 0.40005 h 0.39123 v -0.40005 h 0.21202 v 1.01036 z"
         style="fill:#474a50;fill-opacity:1;fill-rule:nonzero;stroke:none;stroke-width:0.35277778"
         id="path682"
         inkscape:connector-curvature="0" />
      <path
         d="m 97.995033,207.01532 c -0.297392,0 -0.510822,-0.23213 -0.510822,-0.51964 v -0.003 c 0,-0.28716 0.216253,-0.52247 0.513644,-0.52247 0.297392,0 0.510822,0.23248 0.510822,0.51964 v 0.003 c 0,0.28716 -0.216252,0.52246 -0.513644,0.52246 m 0.2921,-0.52246 c 0,-0.17322 -0.121356,-0.3175 -0.2921,-0.3175 -0.170744,0 -0.289278,0.14146 -0.289278,0.31467 v 0.003 c 0,0.17321 0.121356,0.3175 0.2921,0.3175 0.170745,0 0.289278,-0.14147 0.289278,-0.31468 z"
         style="fill:#474a50;fill-opacity:1;fill-rule:nonzero;stroke:none;stroke-width:0.35277778"
         id="path694"
         inkscape:connector-curvature="0" />
      <path
         d="m 99.645642,206.19268 v 0.80539 h -0.212019 v -0.80539 h -0.293512 v -0.20496 H 99.9388 v 0.20496 z"
         style="fill:#474a50;fill-opacity:1;fill-rule:nonzero;stroke:none;stroke-width:0.35277778"
         id="path698"
         inkscape:connector-curvature="0" />
      <path
         d="m 100.73301,206.99791 v -1.01036 h 0.72707 v 0.19791 h -0.51646 v 0.20497 h 0.45438 v 0.19755 h -0.45438 v 0.21237 h 0.52352 v 0.19756 z"
         style="fill:#474a50;fill-opacity:1;fill-rule:nonzero;stroke:none;stroke-width:0.35277778"
         id="path702"
         inkscape:connector-curvature="0" />
      <path
         d="m 102.28724,206.99791 v -1.01036 h 0.21202 v 0.80822 h 0.48048 v 0.20214 z"
         style="fill:#474a50;fill-opacity:1;fill-rule:nonzero;stroke:none;stroke-width:0.35277778"
         id="path706"
         inkscape:connector-curvature="0" />
      <path
         d="m 105.12276,207.01532 c -0.30021,0 -0.50659,-0.22084 -0.50659,-0.51964 v -0.003 c 0,-0.28716 0.21343,-0.52247 0.50518,-0.52247 0.17357,0 0.27834,0.049 0.37888,0.13864 l -0.1337,0.16898 c -0.0744,-0.0649 -0.14041,-0.10265 -0.25188,-0.10265 -0.15452,0 -0.27693,0.14287 -0.27693,0.31467 v 0.003 c 0,0.18485 0.121,0.32032 0.2921,0.32032 0.0769,0 0.14569,-0.0201 0.19967,-0.0607 v -0.14429 h -0.21343 v -0.19191 h 0.41839 v 0.43886 c -0.0991,0.0878 -0.2353,0.16016 -0.41169,0.16016"
         style="fill:#474a50;fill-opacity:1;fill-rule:nonzero;stroke:none;stroke-width:0.35277778"
         id="path710"
         inkscape:connector-curvature="0" />
      <path
         d="m 106.99439,206.99791 -0.20673,-0.32314 h -0.16651 v 0.32314 h -0.21202 v -1.01036 h 0.44062 c 0.22719,0 0.36371,0.12559 0.36371,0.33338 v 0.003 c 0,0.16299 -0.084,0.26529 -0.20672,0.31327 l 0.23565,0.36054 z m 0.004,-0.66534 c 0,-0.0949 -0.0635,-0.14428 -0.16651,-0.14428 h -0.21096 v 0.28998 h 0.21484 c 0.10337,0 0.16263,-0.0575 0.16263,-0.14288 z"
         style="fill:#474a50;fill-opacity:1;fill-rule:nonzero;stroke:none;stroke-width:0.35277778"
         id="path714"
         inkscape:connector-curvature="0" />
      <path
         d="m 108.46547,207.01532 c -0.29774,0 -0.51117,-0.23213 -0.51117,-0.51964 v -0.003 c 0,-0.28716 0.21625,-0.52247 0.51364,-0.52247 0.29774,0 0.51117,0.23248 0.51117,0.51964 v 0.003 c 0,0.28716 -0.21625,0.52246 -0.51364,0.52246 m 0.29175,-0.52246 c 0,-0.17322 -0.12101,-0.3175 -0.29175,-0.3175 -0.17074,0 -0.28928,0.14146 -0.28928,0.31467 v 0.003 c 0,0.17321 0.12101,0.3175 0.29175,0.3175 0.17074,0 0.28928,-0.14147 0.28928,-0.31468 z"
         style="fill:#474a50;fill-opacity:1;fill-rule:nonzero;stroke:none;stroke-width:0.35277778"
         id="path718"
         inkscape:connector-curvature="0" />
      <path
         d="m 110.16209,207.01387 c -0.25894,0 -0.41734,-0.15169 -0.41734,-0.44873 v -0.5775 h 0.21202 v 0.57185 c 0,0.1644 0.0787,0.24942 0.20814,0.24942 0.12947,0 0.20779,-0.0822 0.20779,-0.24236 v -0.57891 h 0.21202 v 0.57009 c 0,0.30586 -0.16369,0.45614 -0.42263,0.45614"
         style="fill:#474a50;fill-opacity:1;fill-rule:nonzero;stroke:none;stroke-width:0.35277778"
         id="path722"
         inkscape:connector-curvature="0" />
      <path
         d="m 111.76644,206.69497 h -0.16087 v 0.30304 h -0.21237 v -1.01036 h 0.39405 c 0.22966,0 0.36901,0.14288 0.36901,0.34925 v 0.003 c 0,0.23353 -0.17357,0.35489 -0.38982,0.35489 m 0.17498,-0.35348 c 0,-0.0995 -0.066,-0.15311 -0.17216,-0.15311 h -0.16369 v 0.30903 h 0.16793 c 0.10583,0 0.16792,-0.0667 0.16792,-0.1531 z"
         style="fill:#474a50;fill-opacity:1;fill-rule:nonzero;stroke:none;stroke-width:0.35277778"
         id="path726"
         inkscape:connector-curvature="0" />
      <path
         inkscape:connector-curvature="0"
         id="path728"
         style="fill:#474a50;fill-opacity:1;fill-rule:nonzero;stroke:none;stroke-width:0.35277778"
         d="m 95.927336,205.41886 h 16.183334 v 0.0624 H 95.927336 Z" />
      <path
         d="M 99.418494,203.95251 H 98.73975 l 0.337961,-0.82656 z m -0.529167,-1.39735 -0.982133,2.3562 h 0.446969 l 0.22472,-0.5528 h 1.000125 l 0.221897,0.5528 h 0.459665 l -0.982482,-2.3562 z"
         style="fill:#474a50;fill-opacity:1;fill-rule:nonzero;stroke:none;stroke-width:0.35277778"
         id="path732"
         inkscape:connector-curvature="0" />
      <path
         d="m 102.06915,203.74486 c 0,0.44909 -0.29492,0.75071 -0.73413,0.75071 h -0.40605 v -1.50812 h 0.40605 c 0.43215,0 0.73413,0.3115 0.73413,0.75741 m -0.73413,-1.17334 h -0.83961 v 2.33998 h 0.83961 c 0.68721,0 1.18639,-0.49354 1.18639,-1.17299 0,-0.67627 -0.49918,-1.16699 -1.18639,-1.16699"
         style="fill:#474a50;fill-opacity:1;fill-rule:nonzero;stroke:none;stroke-width:0.35277778"
         id="path736"
         inkscape:connector-curvature="0" />
      <path
         d="m 109.36635,203.74486 c 0,0.44873 -0.30621,0.78669 -0.71226,0.78669 -0.40957,0 -0.71825,-0.34078 -0.71825,-0.79304 0,-0.44873 0.30621,-0.78705 0.7119,-0.78705 0.40958,0 0.71861,0.34114 0.71861,0.7934 m -0.71226,-1.2125 c -0.66745,0 -1.17051,0.52141 -1.17051,1.2125 0,0.68756 0.50059,1.20615 1.16416,1.20615 0.66746,0 1.17087,-0.52141 1.17087,-1.2125 0,-0.68756 -0.50094,-1.20615 -1.16452,-1.20615"
         style="fill:#474a50;fill-opacity:1;fill-rule:nonzero;stroke:none;stroke-width:0.35277778"
         id="path740"
         inkscape:connector-curvature="0" />
      <path
         d="m 97.322923,203.34566 c 0,0.22296 -0.162631,0.36124 -0.424744,0.36124 h -0.537281 v -0.71931 h 0.534106 c 0.275872,0 0.427919,0.127 0.427919,0.35807 m 0.439561,-0.0229 c 0,-0.4632 -0.320322,-0.75106 -0.836436,-0.75106 h -0.998714 v 2.33997 h 0.433564 v -0.79869 h 0.442736 l 0.537281,0.79869 h 0.512233 l -0.597253,-0.87806 c 0.327025,-0.1069 0.506589,-0.35807 0.506589,-0.71085"
         style="fill:#474a50;fill-opacity:1;fill-rule:nonzero;stroke:none;stroke-width:0.35277778"
         id="path744"
         inkscape:connector-curvature="0" />
      <path
         inkscape:connector-curvature="0"
         id="path746"
         style="fill:#474a50;fill-opacity:1;fill-rule:nonzero;stroke:none;stroke-width:0.35277778"
         d="m 102.88094,204.91156 h 0.43321 v -2.33997 h -0.43321 z" />
      <path
         d="m 104.64461,203.53439 c -0.42404,-0.10619 -0.49953,-0.18097 -0.49953,-0.33937 0,-0.14958 0.13299,-0.25012 0.33126,-0.25012 0.19049,0 0.37958,0.0755 0.57784,0.23036 l 0.0208,0.0162 0.23354,-0.34466 -0.0169,-0.0141 c -0.2353,-0.19756 -0.49953,-0.29387 -0.80927,-0.29387 -0.45367,0 -0.77082,0.28469 -0.77082,0.69215 0,0.43674 0.27376,0.59161 0.74648,0.7112 0.40605,0.0984 0.47449,0.18098 0.47449,0.3295 0,0.16439 -0.139,0.2667 -0.36266,0.2667 -0.24694,0 -0.44838,-0.0871 -0.6731,-0.2914 l -0.0198,-0.018 -0.26177,0.32632 0.0169,0.0159 c 0.2607,0.24413 0.58173,0.37289 0.92851,0.37289 0.48895,0 0.80504,-0.27905 0.80504,-0.71155 0,-0.36548 -0.20885,-0.56762 -0.72108,-0.69815"
         style="fill:#474a50;fill-opacity:1;fill-rule:nonzero;stroke:none;stroke-width:0.35277778"
         id="path750"
         inkscape:connector-curvature="0" />
      <path
         d="m 106.5337,203.53439 c -0.42404,-0.10619 -0.49953,-0.18097 -0.49953,-0.33937 0,-0.14958 0.13299,-0.25012 0.33126,-0.25012 0.19049,0 0.37958,0.0755 0.57784,0.23036 l 0.0208,0.0162 0.23354,-0.34466 -0.0169,-0.0141 c -0.23495,-0.19756 -0.49953,-0.29387 -0.80891,-0.29387 -0.45403,0 -0.77118,0.28469 -0.77118,0.69215 0,0.43674 0.27376,0.59161 0.74648,0.7112 0.40605,0.0984 0.47449,0.18098 0.47449,0.3295 0,0.16439 -0.139,0.2667 -0.36231,0.2667 -0.24694,0 -0.44838,-0.0871 -0.67345,-0.2914 l -0.0194,-0.0176 -0.26212,0.32597 0.0169,0.0159 c 0.2607,0.24413 0.58173,0.37289 0.92851,0.37289 0.4893,0 0.80539,-0.27905 0.80539,-0.71155 0,-0.36548 -0.2092,-0.56762 -0.72143,-0.69815"
         style="fill:#474a50;fill-opacity:1;fill-rule:nonzero;stroke:none;stroke-width:0.35277778"
         id="path754"
         inkscape:connector-curvature="0" />
      <path
         d="m 111.68331,202.57165 v 1.53352 l -1.12642,-1.52364 -0.007,-0.01 h -0.39299 v 2.33997 h 0.42721 v -1.57938 l 1.16064,1.56915 0.007,0.0102 h 0.35877 v -2.33997 z"
         style="fill:#474a50;fill-opacity:1;fill-rule:nonzero;stroke:none;stroke-width:0.35277778"
         id="path766"
         inkscape:connector-curvature="0" />
      <path
         d="m 92.924384,205.66775 h -0.4953 v -0.67945 h -0.636411 v 0.67945 h -0.4953 v -1.78788 h 0.4953 v 0.66922 h 0.636411 v -0.66922 h 0.4953 z m 1.154289,0.036 c -0.557036,0 -0.970492,-0.38311 -0.970492,-0.92463 v -0.005 c 0,-0.5214 0.408517,-0.92957 0.960261,-0.92957 h 0.42545 c -0.371827,-0.95391 -1.297516,-1.63054 -2.383014,-1.63054 -1.098902,0 -2.033411,0.69392 -2.396419,1.66617 h 0.658283 c 0.273403,0 0.462139,0.0716 0.582436,0.19156 0.104423,0.10442 0.158045,0.23989 0.158045,0.41628 v 0.005 c 0,0.27622 -0.145345,0.45755 -0.367595,0.55174 l 0.426509,0.62336 h -0.569384 l -0.360538,-0.54151 h -0.219781 v 0.54151 h -0.307975 c 0.363008,0.97226 1.297517,1.66617 2.396419,1.66617 1.116189,0 2.063045,-0.71579 2.413353,-1.71238 -0.13088,0.0508 -0.2794,0.0822 -0.445558,0.0822"
         style="fill:#474a50;fill-opacity:1;fill-rule:nonzero;stroke:none;stroke-width:0.35277778"
         id="path770"
         inkscape:connector-curvature="0" />
      <path
         d="m 90.617992,204.52604 v -0.005 c 0,-0.14288 -0.104775,-0.21449 -0.268111,-0.21449 h -0.327378 v 0.4318 h 0.329847 c 0.166159,0 0.265642,-0.0819 0.265642,-0.21202"
         style="fill:#474a50;fill-opacity:1;fill-rule:nonzero;stroke:none;stroke-width:0.35277778"
         id="path782"
         inkscape:connector-curvature="0" />
      <path
         d="m 94.385513,204.98568 v 0.21731 c -0.07126,0.0487 -0.163336,0.0744 -0.286103,0.0744 -0.283633,0 -0.485775,-0.20744 -0.485775,-0.49848 v -0.005 c 0,-0.27305 0.199672,-0.48789 0.457553,-0.48789 h 0.551744 c 0.02152,0.10971 0.03387,0.22295 0.04022,0.33761 H 94.03556 v 0.3623 z"
         style="fill:#474a50;fill-opacity:1;fill-rule:nonzero;stroke:none;stroke-width:0.35277778"
         id="path786"
         inkscape:connector-curvature="0" />
      <path
         inkscape:connector-curvature="0"
         id="path788"
         style="fill:#474a50;fill-opacity:1;fill-rule:nonzero;stroke:none;stroke-width:0.35277778"
         d="m 95.928396,205.47918 h 16.180854 v -0.0621 H 95.928396 Z" />
      <path
         d="m 112.8261,205.98771 -0.0617,0.0991 -0.0621,-0.0991 h -0.0561 v 0.23495 h 0.0501 v -0.15875 l 0.0649,0.10301 h 0.005 l 0.0649,-0.10301 v 0.15875 h 0.0501 v -0.23495 z m -0.42369,0 v 0.0473 h 0.0702 v 0.18768 h 0.0533 v -0.18768 h 0.0702 v -0.0473 z"
         style="fill:#474a50;fill-opacity:1;fill-rule:nonzero;stroke:none;stroke-width:0.35277778"
         id="path792"
         inkscape:connector-curvature="0" />
    </g>
  </g>
</svg>
