<svg id="Lag_1" data-name="Lag 1" xmlns="http://www.w3.org/2000/svg" xmlns:xlink="http://www.w3.org/1999/xlink" viewBox="0 0 630.73 229.53"><defs><style>.cls-1{fill:none;}.cls-2{clip-path:url(#clip-path);}.cls-3{clip-path:url(#clip-path-2);}.cls-4{clip-path:url(#clip-path-3);}</style><clipPath id="clip-path" transform="translate(-679 -454.86)"><rect class="cls-1" x="1007.73" y="577.39" width="102" height="26"/></clipPath><clipPath id="clip-path-2" transform="translate(-679 -454.86)"><rect class="cls-1" x="1180.73" y="532.39" width="77" height="26"/></clipPath><clipPath id="clip-path-3" transform="translate(-679 -454.86)"><rect class="cls-1" x="1227.73" y="653.39" width="77" height="26"/></clipPath></defs><title>SocDig_Logo_EPS_1</title><path d="M714.52,560.57q21,0,31.47-8.12T756.43,530q0-8.26-2.46-13.7a24.62,24.62,0,0,0-8-9.57q-5.58-4.13-15.88-8.34l-3.19-1.3A84.83,84.83,0,0,1,715,491.62a5.88,5.88,0,0,1-3.12-5.15q0-3.19,3.48-4.86a21.71,21.71,0,0,1,9.28-1.67,52.84,52.84,0,0,1,25.81,7V461.24a62.13,62.13,0,0,0-14.35-4.86,84.71,84.71,0,0,0-17-1.52,51.52,51.52,0,0,0-20.74,3.92,32.7,32.7,0,0,0-14,10.95,27,27,0,0,0-5,16q0,10.73,6.31,18t20.37,13.34q7.25,3.19,10.58,4.86a17.33,17.33,0,0,1,5,3.48,6.12,6.12,0,0,1,1.67,4.28q0,5.95-11.16,5.94a68.55,68.55,0,0,1-16.46-2.17A70,70,0,0,1,679,526.93v26.54a60,60,0,0,0,15.95,5.15,100.31,100.31,0,0,0,19.57,2Z" transform="translate(-679 -454.86)"/><path d="M679.55,679.39h37.26q26.1,0,41-13t14.93-38.21q0-15.22-6.89-26.61a45.22,45.22,0,0,0-19.43-17.47Q733.92,578,717.1,578H679.55V679.39Zm30-25.23v-50.9h9.86q10.58,0,16.68,7.11t6.09,17.83q0,12-6,19t-17.18,7Z" transform="translate(-679 -454.86)"/><path d="M825.86,560.57a57.66,57.66,0,0,0,27.77-6.67,50.05,50.05,0,0,0,19.57-18.63q7.18-12,7.18-27.48a52.75,52.75,0,0,0-7.18-27.55,49.91,49.91,0,0,0-19.57-18.7,57.68,57.68,0,0,0-27.77-6.67,58.52,58.52,0,0,0-27.91,6.67,49.65,49.65,0,0,0-19.72,18.7,52.75,52.75,0,0,0-7.18,27.55q0,15.52,7.18,27.48a49.79,49.79,0,0,0,19.72,18.63,58.49,58.49,0,0,0,27.91,6.67Zm0-28.13a25.52,25.52,0,0,1-12.32-3,21.75,21.75,0,0,1-8.7-8.56,26,26,0,0,1-3.19-13.12q0-11.16,6.89-17.83t17.33-6.67A23.48,23.48,0,0,1,843,490q6.81,6.67,6.82,17.83a26,26,0,0,1-3.19,13.12,21.9,21.9,0,0,1-8.63,8.56,24.82,24.82,0,0,1-12.11,3Zm125.86,28.13q22.47,0,36.54-8.84V524.17a51,51,0,0,1-15.44,7.39,67.85,67.85,0,0,1-18.49,2.32q-13.2,0-20.44-6.6t-7.25-19.5q0-12.9,7-19.43t20.66-6.52A70.26,70.26,0,0,1,972.74,484a40.83,40.83,0,0,1,14.35,7.1V463.42a55,55,0,0,0-16-6.52,84.52,84.52,0,0,0-19.43-2q-16.82,0-29.43,6.38a45.4,45.4,0,0,0-19.43,18.34q-6.82,12-6.82,28.2t6.82,28.13a45.51,45.51,0,0,0,19.43,18.27q12.62,6.38,29.43,6.38Z" transform="translate(-679 -454.86)"/><path d="M1007.71,558.39h30V457h-30V558.39Zm46.11,0h30.74l7.68-19.28h33.21l7.54,19.28h30.74L1123.27,457h-28.86l-40.6,101.35Zm45.24-42,9.72-28.42,9.71,28.42Z" transform="translate(-679 -454.86)"/><polygon points="501.66 103.53 572.57 103.53 572.57 78.3 531.68 78.3 531.68 2.17 501.66 2.17 501.66 103.53 501.66 103.53"/><path d="M793.71,679.39h30V578h-30V679.39Zm106,2.17q23.34,0,38.71-9.57V621.25H897.09v19H911v12.9a25.2,25.2,0,0,1-10.15,1.74q-12.76,0-19.5-6.6t-6.74-19.5q0-12.32,7-19.14t20.66-6.82A70.26,70.26,0,0,1,920.73,605a42.2,42.2,0,0,1,14.36,7v-27.7q-12.76-8.41-35.38-8.41-16.82,0-29.43,6.38a45.4,45.4,0,0,0-19.43,18.34q-6.82,12-6.82,28.2t6.82,28.13a45.51,45.51,0,0,0,19.43,18.27q12.62,6.38,29.43,6.38Zm59-2.17h30V578h-30V679.39Z" transform="translate(-679 -454.86)"/><path d="M1044.21,679.39h30V603.27h27.26V578h-84.54v25.23h27.26v76.13Zm57.56,0h30.74l7.68-19.28h33.2l7.54,19.28h30.74L1171.23,578h-28.85l-40.6,101.35Zm45.24-42,9.71-28.42,9.72,28.42Z" transform="translate(-679 -454.86)"/><polygon points="548.66 224.53 619.57 224.53 619.57 199.3 578.68 199.3 578.68 123.17 548.66 123.17 548.66 224.53 548.66 224.53"/><g class="cls-2"><rect x="323.73" y="117.53" width="112" height="36"/></g><g class="cls-3"><rect x="496.73" y="72.53" width="87" height="36"/></g><g class="cls-4"><rect x="543.73" y="193.53" width="87" height="36"/></g></svg>