<!-- Generator: Adobe Illustrator 18.1.1, SVG Export Plug-In  -->
<svg version="1.1"
	 xmlns="http://www.w3.org/2000/svg" xmlns:xlink="http://www.w3.org/1999/xlink" xmlns:a="http://ns.adobe.com/AdobeSVGViewerExtensions/3.0/"
	 x="0px" y="0px" width="100%" viewBox="0 0 286.6 236" enable-background="new 0 0 286.6 236"
	 xml:space="preserve">
<style>
.st-0 {
    fill:#fff;
}
</style>
<path class="st-0" d="M0.4,50.3l0,3.9c0,0,58.4-32.8,140.6-32.8c89.6,0,145.1,32.8,145.1,32.8v-4.3c0,0-55.7-32.8-145.1-32.8
	C57.2,17.1,0.4,50.3,0.4,50.3"/>
<path class="st-0" d="M0.2,33l0.1,10.6c0,0,60.9-33.2,140.7-33.2c87.2,0,144.5,32.6,145.1,32.9V32.8c0,0-57.3-32.8-145.1-32.8
	C58.6,0,0.2,33,0.2,33"/>
<path class="st-0" d="M99.4,148.2c0-3,1.5-4.6,4.3-4.9c2.8-0.3,4.3,0.9,4.3,3.9v15.7l-8.6,1V148.2z M99.4,172.1l8.6-1v34.1
	c4.8-0.5,9.6-0.9,14.5-1.2v-59c0-4.6-2.2-7.9-6.7-9.9c-3.6-1.5-7.6-2-12.1-1.5c-4.6,0.5-8.7,1.9-12.3,4.3c-4.5,3-6.7,6.9-6.7,11.5
	v59c4.8-0.8,9.7-1.7,14.7-2.3V172.1z M152.2,203.5v-62.2l12.3,0.4v-9.4c0,0-10.2-0.7-19.6-0.7c-9.6-0.1-19.6,0.4-19.6,0.4v9.2
	l12.6-0.2v62.4C142.2,203.3,149.2,203.4,152.2,203.5 M200.6,197.4l-17.6-2.1v-24.2l16.7,2v-9.3l-16.7-2v-17.8l17.1,2.4v-10
	c0,0-9-1.6-17.4-2.5c-9.4-1-14-1.3-14-1.3v71.8c10.8,0.5,21.3,2,31.8,3.8V197.4z M27.1,164.3l12.9-5.1l0-11.3
	c-11.6,4.2-13.1,4.6-19.7,7.4C9.4,159.5,0,164.8,0,164.8V176l12.1-5.6v60.2c5.1-2.4,9.4-4.1,15-6.3V164.3z M219.9,153.1
	c0-2.8,1.4-3.9,4.1-3.2c3,0.8,4.5,4,4.5,9.9v8.5c0,4.8-2.8,6.5-8.5,5.1l-0.1,0V153.1z M219.9,181c0.5,0.1,0.8,0.2,1,0.2
	c2.3,0.6,3.9,1.2,4.8,2c1.4,1.2,2.1,3.1,2.1,5.6v25.2c4.8,1,9.4,2.7,13.9,4v-25.8c0-6-3.5-10.2-10.6-12.7c7.1,1.2,10.6-1.7,10.6-8.3
	v-12.2c0-4.7-2.1-8.8-6.3-12.4c-3.3-2.8-7.1-4.7-11.5-5.8c-4.3-1.1-8.2-1.1-11.6-0.1c-4.3,1.4-6.5,4.5-6.5,9.2v59
	c4.8,1,8.7,1.8,14.1,3V181z M78.5,200.6l-17.9,4v-24.5l17.5-3.8v-9.4l-17.5,3.8v-18l17.9-3.8v-11c0,0-10,2-17,3.8
	c-6.9,1.7-15.8,4.4-15.8,4.4v71.7c9.7-2.8,15.1-4.8,32.8-8.3V200.6z"/>
<path class="st-0" d="M196.6,48c-2.7-2.2-6.8-3.5-12.4-3.9c-0.4-0.1-0.9-0.1-1.4-0.1c-12.4-0.7-18.5,3.4-18.5,12.3V64
	c0,4,2,8.2,5.9,12.6c3.6,3.5,7.4,7,11,10.6c3.9,4,5.9,7.2,5.9,9.9c0,0.6,0.1,1.5,0.2,2.8c0.1,1.2,0.2,2.2,0.2,2.8
	c0,4-1.6,5.9-4.8,5.8c-2.8-0.2-4.1-1.7-4.1-4.6V88.1l-14.4-0.8c0,1.2-0.1,3.1-0.3,5.7c-0.1,2.5-0.2,4.4-0.2,5.8
	c0,6.6,1.9,11.2,5.4,14c3,2.5,7.6,3.8,13.7,4.2c12.5,0.7,18.7-3,18.7-12.1v-9.3c0-3.7-1.9-7.7-5.9-11.8c-3.7-3.6-7.5-6.9-11.1-10.5
	c-4.1-4.1-5.9-8.2-5.9-11.9c0-0.5,0-1.2-0.1-2c-0.1-0.9-0.1-1.6-0.1-2.1c0-3.5,1.4-5.1,4.4-4.9c3.3,0.2,5,3.4,5,9.7
	c0,1.2-0.1,2.8-0.3,4.8c-0.2,2.3-0.3,3.9-0.3,4.8l14.3,0.8c0-1.1,0.1-2.8,0.2-5.1c0.1-2.3,0.2-4,0.2-5.2
	C202,55.5,200.2,50.8,196.6,48 M85.9,118.8c10.2-1.6,21-3.1,32.1-4.1v-12.2l-17.6,2.5V81l17.2-2.4v-9.2l-17.2,2.4V54.2l17.6-2.5
	v-8.6c-11.3,0.9-21.8,2.2-32,4L85.9,118.8z M234,54.5l-12.5,29l0.4-32.2c-4.7-1-9.5-2.3-14.5-3.1l-0.4,71.6c5,0.7,9.8,2.1,14.5,3
	V87.2l10.5,38.5c5.1,1.4,10.4,3.1,15.7,4.8L235.3,88l12.5-29.2C243.4,57.4,238.4,55.8,234,54.5 M32.6,65.2
	c-2.9-1.2-7.4-0.9-13.7,1.1C6.4,70.2,0.3,76.6,0.3,85.5v7.7c0,4,2,7.4,5.9,10.4c3.6,2.1,7.4,4.3,11,6.5c4,2.5,5.9,5,5.9,7.6
	c0,0.6,0.1,1.4,0.2,2.7c0.1,1.2,0.2,2.1,0.2,2.7c0,3.9-1.6,6.5-4.8,7.5c-2.8,0.9-4.2-0.1-4.2-3v-15.7l-14.4,4.5
	c0,1.2-0.2,10.5-0.2,11.8c0,6.6,1.4,10.6,5,12.1c3,1.3,7.6,0.9,13.8-1c12.5-3.9,18.7-10.3,18.7-19.3v-9.2c0-3.7-1.9-7-5.9-9.5
	c-3.7-2.2-7.5-4.1-11-6.4c-4.1-2.6-5.9-5.9-5.9-9.6c0-0.5,0-1.2-0.1-2c-0.1-0.8-0.1-1.5-0.1-2c0-3.5,1.4-5.6,4.4-6.5
	c3.3-1.1,5,1.5,5,7.8c0,1.2-0.1,2.8-0.3,4.9c-0.2,2.3-0.3,3.9-0.3,4.9l14.4-4.5c0-1.1,0.1-2.8,0.2-5.1c0.1-2.3,0.2-4,0.2-5.2
	C38,70.7,36.2,66.7,32.6,65.2 M272.1,97.1l-8.5-4.4V76.9c0-3,1.5-3.9,4.3-2.8c2.8,1.1,4.3,4.2,4.3,7.2V97.1z M279.9,73.2
	c-3.5-3.5-7.6-6.2-12.1-8c-4.6-1.8-8.6-2.4-12.2-1.9c-4.5,0.8-6.7,3.5-6.7,8.2V131c5.1,1.7,9.9,3.5,14.6,5.3v-34.6l8.5,4.4V140
	c3.4,1.5,14.5,6.9,14.5,6.9l-0.1-58.9C286.6,83.2,284.4,77.7,279.9,73.2 M60.9,111.5L55.1,54c-5.4,1.4-10,2.9-14.5,4.4l9,68.9
	c6.9-2.1,14.2-4,21.9-5.7l11.4-74c-4.8,0.9-9.4,1.8-13.9,2.9L60.9,111.5z"/>
<path class="st-0" d="M159.1,114.2L159,42.5c-3.6-0.2-7.5-0.3-11.6-0.3v40.6l-11.8-40.6c-3.8,0.1-7.8,0.2-11.9,0.5l0,71.7
	c3.7-0.1,7.6-0.4,11.6-0.4l0-40.9l11.9,40.8C151.1,113.9,153.4,113.9,159.1,114.2"/>
<path class="st-0" d="M286,236v-71.9c-4.1-2-8.3-4-12.2-5.8v39l-12.4-44.2c-4-1.4-8.3-3.1-12.6-4.5v71.7c3.9,1.4,8,2.8,12.2,4.5
	v-42.1l12.5,47.4C277.4,231.8,281.7,234,286,236"/>
</svg>