<svg xmlns="http://www.w3.org/2000/svg" viewBox="0 0 300 510"><defs><style>.cls-1{fill:#7fa33f;}.cls-2{fill:#b2c88c;}.cls-3{fill:#fff;}</style></defs><title>x</title><g id="Assessment_Badges" data-name="Assessment Badges"><polygon class="cls-1" points="82.43 182.42 82.43 505 150 437.36 217.56 505 217.56 182.42 82.43 182.42"/><path class="cls-2" d="M207.62,192.36V481l-54.79-54.86L150,423.3l-2.83,2.83L92.37,481V192.36H207.62m4-4H88.37V490.65L150,429l61.62,61.69V188.36Z"/><path class="cls-1" d="M254.3,48.2a147.51,147.51,0,0,0-208.6,0A147.5,147.5,0,0,0,150,300,147.5,147.5,0,0,0,254.3,48.2Z"/><circle class="cls-2" cx="150" cy="30" r="5"/><path class="cls-2" d="M109.8,42a5,5,0,1,0-6.4-3A4.89,4.89,0,0,0,109.8,42Z"/><path class="cls-2" d="M68,54.8a5,5,0,1,0,7,.6A5,5,0,0,0,68,54.8Z"/><path class="cls-2" d="M41.4,95.6a5,5,0,1,0-1.8-6.8A4.93,4.93,0,0,0,41.4,95.6Z"/><path class="cls-2" d="M30.2,126.3a5,5,0,1,0,4,5.8A5,5,0,0,0,30.2,126.3Z"/><path class="cls-2" d="M28.5,168.9a5,5,0,1,0,5.8,4A5,5,0,0,0,28.5,168.9Z"/><path class="cls-2" d="M41.4,209.4a5,5,0,1,0,6.8,1.8A5.12,5.12,0,0,0,41.4,209.4Z"/><path class="cls-2" d="M67.4,243.2a5,5,0,1,0,7-.6A4.85,4.85,0,0,0,67.4,243.2Z"/><circle class="cls-2" cx="108.06" cy="267.63" r="5"/><path class="cls-2" d="M150,270a5,5,0,1,0,5,5A5,5,0,0,0,150,270Z"/><path class="cls-2" d="M190.2,263a5,5,0,1,0,6.4,3A4.85,4.85,0,0,0,190.2,263Z"/><path class="cls-2" d="M225.6,242.5a5,5,0,1,0,7,.6A5,5,0,0,0,225.6,242.5Z"/><path class="cls-2" d="M258.6,209.4a5,5,0,1,0,1.8,6.8A4.93,4.93,0,0,0,258.6,209.4Z"/><path class="cls-2" d="M280.2,152.5l4-15.6,10.9.7c-.4-3.5-.8-7-1.4-10.4h0v-.1c-.6-3.5-1.3-6.9-2.2-10.2l-10,4.3-9.1-13.3-1.6-16,10.5-3.1c-1.5-3.1-3.2-6.2-4.9-9.3h-.1v-.1c-1.8-3-3.6-6-5.6-8.9L262.8,78l-13.1-9.4-6.9-14.5,8.8-6.5c-2.5-2.4-5.1-4.8-7.8-7h0c-2.7-2.2-5.4-4.4-8.3-6.5l-4.9,9.8-15.5-4.3L203.6,28.3l6-9.1c-3.2-1.4-6.4-2.8-9.7-3.9h-.1v-.1c-3.3-1.2-6.6-2.3-10-3.2l-1.2,10.9-16,1.3L158,17.6,160.5,7c-3.5-.2-7-.4-10.5-.4h0c-3.5,0-7,.1-10.5.4L142,17.6l-14.7,6.7-16-1.3-1.2-10.9c-3.4,1-6.7,2-10,3.2v.1H100c-3.3,1.2-6.5,2.5-9.7,3.9l6,9.1L84.9,39.7,69.4,44l-4.9-9.8c-2.8,2.1-5.6,4.2-8.3,6.5h0c-2.7,2.2-5.3,4.6-7.8,7l8.7,6.5L50.2,68.7,37.1,78l-7.9-7.5c-2,2.9-3.8,5.8-5.6,8.9v.1h-.1c-1.7,3-3.4,6.1-4.9,9.3l10.5,3.1-1.6,16-9.1,13.3-10-4.3c-.8,3.4-1.6,6.8-2.2,10.2v.1H6.1c-.6,3.4-1.1,6.9-1.4,10.4l10.9-.7,4,15.6-4,15.6-10.9-.7c.4,3.5.8,7,1.4,10.4h.1c.6,3.5,1.3,6.9,2.2,10.2l10-4.3L27.5,197l1.6,16-10.5,3.1c1.5,3.1,3.2,6.2,4.9,9.3h.1v.1c1.7,3,3.6,6,5.6,8.9l7.9-7.5,13.1,9.3,6.9,14.5-8.8,6.5c2.5,2.4,5.1,4.8,7.8,7h0c2.7,2.3,5.4,4.4,8.3,6.5l4.9-9.8,15.5,4.3,11.5,11.3-6,9.1c3.2,1.4,6.4,2.7,9.7,3.9h.1v.1c3.3,1.2,6.6,2.3,10,3.2l1.2-10.9,16-1.3,14.7,6.7-2.5,10.6c3.5.2,7,.4,10.5.4h0c3.5,0,7-.1,10.5-.4L158,287.3l14.7-6.7,16,1.3,1.2,10.9c3.4-1,6.7-2,10-3.2v-.1h.1c3.3-1.2,6.5-2.5,9.7-3.9l-6-9.1,11.5-11.3,15.5-4.3,4.9,9.8c2.8-2.1,5.6-4.2,8.3-6.5h0c2.7-2.3,5.3-4.6,7.8-7l-8.8-6.5,6.9-14.5,13.1-9.3,7.9,7.5c2-2.9,3.8-5.8,5.6-8.9v-.1h.1c1.7-3,3.4-6.1,4.9-9.3L270.9,213l1.6-16,9.1-13.3,10,4.4c.9-3.4,1.6-6.8,2.2-10.2h0c.6-3.4,1.1-6.9,1.4-10.4l-10.9.7ZM278,175.1a123,123,0,0,1-5.9,21.8,132.16,132.16,0,0,1-9.6,20.6,130.19,130.19,0,0,1-13,18.5,127.28,127.28,0,0,1-16,16,138.07,138.07,0,0,1-18.6,13,128.14,128.14,0,0,1-20.5,9.6,133.65,133.65,0,0,1-21.9,5.8,127.56,127.56,0,0,1-45,0,133.65,133.65,0,0,1-21.9-5.8A124.2,124.2,0,0,1,85.1,265a128,128,0,0,1-18.5-12.9,131.82,131.82,0,0,1-29-34.5,122.11,122.11,0,0,1-9.5-20.5,130.66,130.66,0,0,1-5.9-21.9,135.36,135.36,0,0,1,0-45.2,118.51,118.51,0,0,1,5.9-21.8,141.36,141.36,0,0,1,9.5-20.6A146.76,146.76,0,0,1,50.6,69a127.28,127.28,0,0,1,16-16A129.57,129.57,0,0,1,85.2,40a128.14,128.14,0,0,1,20.5-9.6,133.65,133.65,0,0,1,21.9-5.8,127,127,0,0,1,44.9,0,134.77,134.77,0,0,1,22,5.8A132.33,132.33,0,0,1,215,40a122.06,122.06,0,0,1,18.6,13,135.06,135.06,0,0,1,16,16.1,130.19,130.19,0,0,1,13,18.5,123,123,0,0,1,9.5,20.6A132.14,132.14,0,0,1,278,130a134.77,134.77,0,0,1,0,45.1Z"/><path class="cls-2" d="M271.5,168.9a5,5,0,1,0,4,5.9A4.87,4.87,0,0,0,271.5,168.9Z"/><circle class="cls-2" cx="270.7" cy="131.19" r="5"/><path class="cls-2" d="M253.6,86.9a5,5,0,1,0,6.8,1.8A5,5,0,0,0,253.6,86.9Z"/><path class="cls-2" d="M224.9,55.4a5,5,0,1,0,7-.6A5,5,0,0,0,224.9,55.4Z"/><path class="cls-2" d="M193.6,32.7a5,5,0,1,0,3,6.4A5,5,0,0,0,193.6,32.7Z"/><path class="cls-3" d="M262.9,152.5A112.9,112.9,0,1,1,150,39.6,112.9,112.9,0,0,1,262.9,152.5Z"/><path class="cls-1" d="M45.29,123.54H66.8c12,0,22,3.85,22,17.59,0,13.58-9.24,17.75-21.43,17.75H58.05v22.58H45.29Zm12.76,24.54h8.51c4.5,0,9-1.55,9-7,0-6-6.06-6.79-11-6.79H58.05Z"/><path class="cls-1" d="M125.46,137.69c-2-2.61-6.14-3.84-9.24-3.84-3.61,0-8.6,1.64-8.6,6,0,10.55,26.67,3.76,26.67,24.05,0,12.93-10.38,19.06-22.33,19.06-7.44,0-14-2.21-19.47-7.28l9.08-10a14.19,14.19,0,0,0,11.12,5.48c4.18,0,8.84-2,8.84-6.06,0-10.63-27.16-4.9-27.16-24.21,0-12.35,10.72-18.81,22.09-18.81,6.54,0,12.84,1.72,17.75,6.05Z"/><path class="cls-1" d="M143.78,123.54H165.3c12,0,22,3.85,22,17.59,0,13.58-9.24,17.75-21.43,17.75h-9.33v22.58H143.78Zm12.76,24.54h8.51c4.5,0,9-1.55,9-7,0-6-6.05-6.79-11-6.79h-6.55Z"/><path class="cls-1" d="M223.46,122.07c18.08,0,31.25,11.86,31.25,30.43s-13.17,30.43-31.25,30.43-31.25-11.86-31.25-30.43S205.38,122.07,223.46,122.07Zm0,49.08c10.88,0,18-7.85,18-18.65s-7.11-18.65-18-18.65-18,7.85-18,18.65S212.58,171.15,223.46,171.15Z"/><path class="cls-1" d="M144.53,200.34h10.94V250H144.53Z"/></g></svg>