<?xml version="1.0" encoding="UTF-8" standalone="no"?>
<!DOCTYPE svg PUBLIC "-//W3C//DTD SVG 1.0//EN" "http://www.w3.org/TR/2001/REC-SVG-20010904/DTD/svg10.dtd">
<!-- Created with Inkscape (http://www.inkscape.org/) -->
<svg
   xmlns:svg="http://www.w3.org/2000/svg"
   xmlns="http://www.w3.org/2000/svg"
   version="1.0"
   width="800"
   height="800"
   id="svg2">
  <defs
     id="defs4" />
  <rect
     width="770.91388"
     height="783.57782"
     x="15.085819"
     y="7.3599067"
     id="rect3290"
     style="fill:#005daa;fill-opacity:1;fill-rule:evenodd;stroke:none;stroke-width:5;stroke-linecap:square;stroke-linejoin:miter;stroke-miterlimit:4;stroke-dasharray:none;stroke-dashoffset:0;stroke-opacity:1" />
  <path
     d="M 493.20554,126.30041 C 456.91482,126.30041 426.22421,137.03469 404.66576,156.85838 C 383.10732,176.68208 371.36541,205.27406 371.36541,236.97513 C 371.36541,276.24899 390.65222,305.91887 414.06822,327.08198 C 437.48422,348.24508 465.30608,362.31435 485.37016,373.89836 C 491.61966,377.50646 498.03821,380.86477 504.37095,384.28024 L 151.19128,384.28024 L 151.19128,415.62175 L 552.95032,415.62175 C 562.26201,424.15548 568.83883,433.54985 571.95111,445.98384 L 151.19128,445.98384 L 151.19128,477.32535 L 573.71407,477.32535 C 573.22263,487.2588 572.18699,497.17437 570.57992,506.90391 L 151.19128,506.90391 L 151.19128,538.24542 L 563.13631,538.24542 C 559.72121,548.70685 555.41313,558.66129 550.20793,567.82399 L 151.19128,567.82399 L 151.19128,599.1655 L 525.33059,599.1655 C 504.38443,617.99962 475.27424,629.72347 433.06901,629.72347 C 348.53757,629.72354 151.19128,629.72347 151.19128,629.72347 L 151.19128,661.06499 C 151.19128,661.06499 348.5375,661.06505 433.06901,661.06499 C 497.74291,661.06499 542.9348,634.29075 569.6005,595.83546 C 596.26617,557.38018 605.44735,508.74641 605.44735,463.22167 C 605.44735,428.50894 587.90106,403.13454 566.66223,386.0432 C 545.42338,368.95186 520.59783,358.15746 501.04092,346.86631 C 479.91573,334.66969 454.54039,321.22989 435.22374,303.77173 C 415.90709,286.31356 402.70692,266.38124 402.70692,236.97513 C 402.70692,212.66026 410.96384,193.63464 425.82129,179.97275 C 440.67873,166.31086 463.03996,157.64192 493.20554,157.64192 C 513.81503,157.64192 537.99256,162.93105 556.02016,176.86405 L 556.20181,176.76006 C 549.85472,158.20707 547.17481,132.69094 513.61852,128.23437 C 506.89081,127.34088 500.13051,126.30041 493.20554,126.30041 z"
     id="path3259"
     style="fill:#ffffff;fill-opacity:1;fill-rule:evenodd;stroke:none;stroke-width:5;stroke-linecap:butt;stroke-linejoin:miter;stroke-miterlimit:4;stroke-dasharray:none;stroke-opacity:1" />
</svg>
